<svg width="20" height="20" viewBox="0 0 20 20" fill="none" xmlns="http://www.w3.org/2000/svg">
<g clip-path="url(#clip0_85_12780)">
<path d="M10 20C12.6522 20 15.1957 18.9464 17.0711 17.0711C18.9464 15.1957 20 12.6522 20 10C20 7.34784 18.9464 4.8043 17.0711 2.92893C15.1957 1.05357 12.6522 0 10 0C7.34784 0 4.8043 1.05357 2.92893 2.92893C1.05357 4.8043 0 7.34784 0 10C0 12.6522 1.05357 15.1957 2.92893 17.0711C4.8043 18.9464 7.34784 20 10 20ZM10 5C10.5195 5 10.9375 5.41797 10.9375 5.9375V10.3125C10.9375 10.832 10.5195 11.25 10 11.25C9.48047 11.25 9.0625 10.832 9.0625 10.3125V5.9375C9.0625 5.41797 9.48047 5 10 5ZM8.75 13.75C8.75 13.4185 8.8817 13.1005 9.11612 12.8661C9.35054 12.6317 9.66848 12.5 10 12.5C10.3315 12.5 10.6495 12.6317 10.8839 12.8661C11.1183 13.1005 11.25 13.4185 11.25 13.75C11.25 14.0815 11.1183 14.3995 10.8839 14.6339C10.6495 14.8683 10.3315 15 10 15C9.66848 15 9.35054 14.8683 9.11612 14.6339C8.8817 14.3995 8.75 14.0815 8.75 13.75Z" fill="#EF4444"/>
</g>
<defs>
<clipPath id="clip0_85_12780">
<path d="M0 0H20V20H0V0Z" fill="white"/>
</clipPath>
</defs>
</svg>
