<svg width="12" height="16" viewBox="0 0 12 16" fill="none" xmlns="http://www.w3.org/2000/svg">
<g clip-path="url(#clip0_40_1024)">
<path d="M5.29365 14.7063C5.68428 15.0969 6.31865 15.0969 6.70928 14.7063L11.7093 9.70625C12.0999 9.31563 12.0999 8.68125 11.7093 8.29062C11.3187 7.9 10.6843 7.9 10.2937 8.29062L6.9999 11.5875V2C6.9999 1.44687 6.55303 1 5.9999 1C5.44678 1 4.9999 1.44687 4.9999 2V11.5844L1.70615 8.29375C1.31553 7.90312 0.681152 7.90312 0.290527 8.29375C-0.100098 8.68437 -0.100098 9.31875 0.290527 9.70938L5.29053 14.7094L5.29365 14.7063Z" fill="#10B981"/>
</g>
<defs>
<clipPath id="clip0_40_1024">
<path d="M0 0H12V16H0V0Z" fill="white"/>
</clipPath>
</defs>
</svg>
