<svg width="16" height="16" viewBox="0 0 16 16" fill="none" xmlns="http://www.w3.org/2000/svg">
<g clip-path="url(#clip0_79_3826)">
<path d="M7.60661 0.0812439L0.606612 3.08124C0.169112 3.26874 -0.0746379 3.73749 0.0222371 4.19999C0.119112 4.66249 0.525362 4.99999 1.00036 4.99999V5.24999C1.00036 5.66562 1.33474 5.99999 1.75036 5.99999H14.2504C14.666 5.99999 15.0004 5.66562 15.0004 5.24999V4.99999C15.4754 4.99999 15.8847 4.66562 15.9785 4.19999C16.0722 3.73437 15.8285 3.26562 15.3941 3.08124L8.39411 0.0812439C8.14411 -0.0250061 7.85661 -0.0250061 7.60661 0.0812439ZM4.00036 6.99999H2.00036V13.1344C1.98161 13.1437 1.96286 13.1562 1.94411 13.1687L0.444112 14.1687C0.0784871 14.4125 -0.0871379 14.8687 0.0409871 15.2906C0.169112 15.7125 0.559737 16 1.00036 16H15.0004C15.441 16 15.8285 15.7125 15.9566 15.2906C16.0847 14.8687 15.9222 14.4125 15.5535 14.1687L14.0535 13.1687C14.0347 13.1562 14.016 13.1469 13.9972 13.1344V6.99999H12.0004V13H10.7504V6.99999H8.75036V13H7.25036V6.99999H5.25036V13H4.00036V6.99999ZM8.00036 1.99999C8.26558 1.99999 8.51993 2.10535 8.70747 2.29289C8.89501 2.48042 9.00036 2.73478 9.00036 2.99999C9.00036 3.26521 8.89501 3.51956 8.70747 3.7071C8.51993 3.89464 8.26558 3.99999 8.00036 3.99999C7.73515 3.99999 7.48079 3.89464 7.29326 3.7071C7.10572 3.51956 7.00036 3.26521 7.00036 2.99999C7.00036 2.73478 7.10572 2.48042 7.29326 2.29289C7.48079 2.10535 7.73515 1.99999 8.00036 1.99999Z" fill="#00A9E0"/>
</g>
<defs>
<clipPath id="clip0_79_3826">
<path d="M0 0H16V16H0V0Z" fill="white"/>
</clipPath>
</defs>
</svg>
