<svg width="16" height="16" viewBox="0 0 16 16" fill="none" xmlns="http://www.w3.org/2000/svg">
<g clip-path="url(#clip0_66_882)">
<path d="M7.60612 0.0812744L0.606124 3.08127C0.168624 3.26877 -0.0751262 3.73752 0.0217488 4.20002C0.118624 4.66252 0.524874 5.00002 0.999874 5.00002V5.25002C0.999874 5.66565 1.33425 6.00002 1.74987 6.00002H14.2499C14.6655 6.00002 14.9999 5.66565 14.9999 5.25002V5.00002C15.4749 5.00002 15.8842 4.66565 15.978 4.20002C16.0717 3.7344 15.828 3.26565 15.3936 3.08127L8.39362 0.0812744C8.14362 -0.0249756 7.85612 -0.0249756 7.60612 0.0812744ZM3.99987 7.00002H1.99987V13.1344C1.98112 13.1438 1.96237 13.1563 1.94362 13.1688L0.443624 14.1688C0.0779988 14.4125 -0.0876262 14.8688 0.0404988 15.2906C0.168624 15.7125 0.559249 16 0.999874 16H14.9999C15.4405 16 15.828 15.7125 15.9561 15.2906C16.0842 14.8688 15.9217 14.4125 15.553 14.1688L14.053 13.1688C14.0342 13.1563 14.0155 13.1469 13.9967 13.1344V7.00002H11.9999V13H10.7499V7.00002H8.74987V13H7.24987V7.00002H5.24987V13H3.99987V7.00002ZM7.99987 2.00002C8.26509 2.00002 8.51944 2.10538 8.70698 2.29292C8.89452 2.48045 8.99987 2.73481 8.99987 3.00002C8.99987 3.26524 8.89452 3.51959 8.70698 3.70713C8.51944 3.89467 8.26509 4.00002 7.99987 4.00002C7.73466 4.00002 7.4803 3.89467 7.29277 3.70713C7.10523 3.51959 6.99987 3.26524 6.99987 3.00002C6.99987 2.73481 7.10523 2.48045 7.29277 2.29292C7.4803 2.10538 7.73466 2.00002 7.99987 2.00002Z" fill="#004A7C"/>
</g>
<defs>
<clipPath id="clip0_66_882">
<path d="M0 0H16V16H0V0Z" fill="white"/>
</clipPath>
</defs>
</svg>
