<svg width="15" height="20" viewBox="0 0 15 20" fill="none" xmlns="http://www.w3.org/2000/svg">
<g clip-path="url(#clip0_81_9970)">
<path d="M1.875 0C0.839844 0 0 0.839844 0 1.875V18.125C0 19.1602 0.839844 20 1.875 20H5.625V16.875C5.625 15.8398 6.46484 15 7.5 15C8.53516 15 9.375 15.8398 9.375 16.875V20H13.125C14.1602 20 15 19.1602 15 18.125V1.875C15 0.839844 14.1602 0 13.125 0H1.875ZM2.5 9.375C2.5 9.03125 2.78125 8.75 3.125 8.75H4.375C4.71875 8.75 5 9.03125 5 9.375V10.625C5 10.9688 4.71875 11.25 4.375 11.25H3.125C2.78125 11.25 2.5 10.9688 2.5 10.625V9.375ZM6.875 8.75H8.125C8.46875 8.75 8.75 9.03125 8.75 9.375V10.625C8.75 10.9688 8.46875 11.25 8.125 11.25H6.875C6.53125 11.25 6.25 10.9688 6.25 10.625V9.375C6.25 9.03125 6.53125 8.75 6.875 8.75ZM10 9.375C10 9.03125 10.2812 8.75 10.625 8.75H11.875C12.2188 8.75 12.5 9.03125 12.5 9.375V10.625C12.5 10.9688 12.2188 11.25 11.875 11.25H10.625C10.2812 11.25 10 10.9688 10 10.625V9.375ZM3.125 3.75H4.375C4.71875 3.75 5 4.03125 5 4.375V5.625C5 5.96875 4.71875 6.25 4.375 6.25H3.125C2.78125 6.25 2.5 5.96875 2.5 5.625V4.375C2.5 4.03125 2.78125 3.75 3.125 3.75ZM6.25 4.375C6.25 4.03125 6.53125 3.75 6.875 3.75H8.125C8.46875 3.75 8.75 4.03125 8.75 4.375V5.625C8.75 5.96875 8.46875 6.25 8.125 6.25H6.875C6.53125 6.25 6.25 5.96875 6.25 5.625V4.375ZM10.625 3.75H11.875C12.2188 3.75 12.5 4.03125 12.5 4.375V5.625C12.5 5.96875 12.2188 6.25 11.875 6.25H10.625C10.2812 6.25 10 5.96875 10 5.625V4.375C10 4.03125 10.2812 3.75 10.625 3.75Z" fill="#004A7C"/>
</g>
<defs>
<clipPath id="clip0_81_9970">
<path d="M0 0H15V20H0V0Z" fill="white"/>
</clipPath>
</defs>
</svg>
