<svg width="30" height="30" viewBox="0 0 30 30" fill="none" xmlns="http://www.w3.org/2000/svg">
<path d="M0 0H30V30H0V0Z" stroke="#E5E7EB"/>
<path d="M7.92188 6.87891L6.39258 11.25H23.6074L22.0781 6.87891C21.8145 6.12891 21.1055 5.625 20.3086 5.625H9.69141C8.89453 5.625 8.18555 6.12891 7.92188 6.87891ZM2.32031 11.5312L4.38281 5.64258C5.17383 3.38672 7.30078 1.875 9.69141 1.875H20.3086C22.6992 1.875 24.8262 3.38672 25.6172 5.64258L27.6797 11.5312C29.0391 12.0938 30 13.4355 30 15V23.4375V26.25C30 27.2871 29.1621 28.125 28.125 28.125H26.25C25.2129 28.125 24.375 27.2871 24.375 26.25V23.4375H5.625V26.25C5.625 27.2871 4.78711 28.125 3.75 28.125H1.875C0.837891 28.125 0 27.2871 0 26.25V23.4375V15C0 13.4355 0.960937 12.0938 2.32031 11.5312ZM7.5 16.875C7.5 16.3777 7.30246 15.9008 6.95083 15.5492C6.59919 15.1975 6.12228 15 5.625 15C5.12772 15 4.65081 15.1975 4.29917 15.5492C3.94754 15.9008 3.75 16.3777 3.75 16.875C3.75 17.3723 3.94754 17.8492 4.29917 18.2008C4.65081 18.5525 5.12772 18.75 5.625 18.75C6.12228 18.75 6.59919 18.5525 6.95083 18.2008C7.30246 17.8492 7.5 17.3723 7.5 16.875ZM24.375 18.75C24.8723 18.75 25.3492 18.5525 25.7008 18.2008C26.0525 17.8492 26.25 17.3723 26.25 16.875C26.25 16.3777 26.0525 15.9008 25.7008 15.5492C25.3492 15.1975 24.8723 15 24.375 15C23.8777 15 23.4008 15.1975 23.0492 15.5492C22.6975 15.9008 22.5 16.3777 22.5 16.875C22.5 17.3723 22.6975 17.8492 23.0492 18.2008C23.4008 18.5525 23.8777 18.75 24.375 18.75Z" fill="#00A9E0"/>
</svg>
