<svg width="23" height="30" viewBox="0 0 23 30" fill="none" xmlns="http://www.w3.org/2000/svg">
<g clip-path="url(#clip0_135_4960)">
<path d="M3.75 27.1875C3.23438 27.1875 2.8125 26.7656 2.8125 26.25V3.75C2.8125 3.23438 3.23438 2.8125 3.75 2.8125H13.125V7.5C13.125 8.53711 13.9629 9.375 15 9.375H19.6875V26.25C19.6875 26.7656 19.2656 27.1875 18.75 27.1875H3.75ZM3.75 0C1.68164 0 0 1.68164 0 3.75V26.25C0 28.3184 1.68164 30 3.75 30H18.75C20.8184 30 22.5 28.3184 22.5 26.25V9.05273C22.5 8.05664 22.1074 7.10156 21.4043 6.39844L16.0957 1.0957C15.3926 0.392578 14.4434 0 13.4473 0H3.75ZM7.03125 15C6.25195 15 5.625 15.627 5.625 16.4062C5.625 17.1855 6.25195 17.8125 7.03125 17.8125H15.4688C16.248 17.8125 16.875 17.1855 16.875 16.4062C16.875 15.627 16.248 15 15.4688 15H7.03125ZM7.03125 20.625C6.25195 20.625 5.625 21.252 5.625 22.0312C5.625 22.8105 6.25195 23.4375 7.03125 23.4375H15.4688C16.248 23.4375 16.875 22.8105 16.875 22.0312C16.875 21.252 16.248 20.625 15.4688 20.625H7.03125Z" fill="#00A9E0"/>
</g>
<defs>
<clipPath id="clip0_135_4960">
<path d="M0 0H22.5V30H0V0Z" fill="white"/>
</clipPath>
</defs>
</svg>
