<svg width="16" height="18" viewBox="0 0 16 18" fill="none" xmlns="http://www.w3.org/2000/svg">
<g clip-path="url(#clip0_85_12733)">
<path d="M12.0452 3.04453C12.4847 2.60508 12.4847 1.8914 12.0452 1.45195C11.6058 1.0125 10.8921 1.0125 10.4526 1.45195L5.62568 6.28242L3.60771 4.26445C3.16826 3.825 2.45459 3.825 2.01514 4.26445C1.57568 4.7039 1.57568 5.41758 2.01514 5.85703L4.82764 8.66953C5.26709 9.10898 5.98076 9.10898 6.42022 8.66953L12.0452 3.04453ZM15.4202 7.54453C15.8597 7.10508 15.8597 6.3914 15.4202 5.95195C14.9808 5.5125 14.2671 5.5125 13.8276 5.95195L5.62568 14.1574L1.92021 10.4555C1.48076 10.016 0.76709 10.016 0.327637 10.4555C-0.111816 10.8949 -0.111816 11.6086 0.327637 12.048L4.82764 16.548C5.26709 16.9875 5.98076 16.9875 6.42022 16.548L15.4202 7.54804V7.54453Z" fill="#00A9E0"/>
</g>
<defs>
<clipPath id="clip0_85_12733">
<path d="M0 0H15.75V18H0V0Z" fill="white"/>
</clipPath>
</defs>
</svg>
