<svg width="16" height="16" viewBox="0 0 16 16" fill="none" xmlns="http://www.w3.org/2000/svg">
<g clip-path="url(#clip0_80_7123)">
<path d="M4 2C4 0.896875 4.89687 0 6 0H11V4C11 4.55312 11.4469 5 12 5H16V14C16 15.1031 15.1031 16 14 16H6C4.89687 16 4 15.1031 4 14V10.5H9.44063L8.22188 11.7188C7.92813 12.0125 7.92813 12.4875 8.22188 12.7781C8.51562 13.0687 8.99063 13.0719 9.28125 12.7781L11.7812 10.2781C12.075 9.98438 12.075 9.50937 11.7812 9.21875L9.28125 6.71875C8.9875 6.425 8.5125 6.425 8.22188 6.71875C7.93125 7.0125 7.92813 7.4875 8.22188 7.77812L9.44063 8.99687H4V2ZM4 9V10.5H0.75C0.334375 10.5 0 10.1656 0 9.75C0 9.33438 0.334375 9 0.75 9H4ZM16 4H12V0L16 4Z" fill="#004A7C"/>
</g>
<defs>
<clipPath id="clip0_80_7123">
<path d="M0 0H16V16H0V0Z" fill="white"/>
</clipPath>
</defs>
</svg>
