<svg width="34" height="30" viewBox="0 0 34 30" fill="none" xmlns="http://www.w3.org/2000/svg">
<g clip-path="url(#clip0_135_4976)">
<path d="M22.5 28.125H25.3125C25.9805 28.125 26.5957 27.7734 26.9297 27.1934L33.4922 15.9434C33.832 15.3633 33.832 14.6484 33.498 14.0625C33.1641 13.4766 32.5488 13.125 31.875 13.125H8.4375C7.76953 13.125 7.1543 13.4766 6.82031 14.0566L2.8125 20.9238V5.625C2.8125 5.10938 3.23437 4.6875 3.75 4.6875H10.6348C10.8809 4.6875 11.1211 4.78711 11.2969 4.96289L12.8496 6.51562C14.0801 7.74609 15.75 8.4375 17.4902 8.4375H24.375C24.8906 8.4375 25.3125 8.85938 25.3125 9.375V11.25H28.125V9.375C28.125 7.30664 26.4434 5.625 24.375 5.625H17.4902C16.4941 5.625 15.5391 5.23242 14.8359 4.5293L13.2832 2.9707C12.5801 2.26758 11.625 1.875 10.6289 1.875H3.75C1.68164 1.875 0 3.55664 0 5.625V24.375C0 26.4434 1.68164 28.125 3.75 28.125H5.13867H22.5Z" fill="#00A9E0"/>
</g>
<defs>
<clipPath id="clip0_135_4976">
<path d="M0 0H33.75V30H0V0Z" fill="white"/>
</clipPath>
</defs>
</svg>
