<svg width="23" height="20" viewBox="0 0 23 20" fill="none" xmlns="http://www.w3.org/2000/svg">
<g clip-path="url(#clip0_81_9981)">
<path d="M2.5 0C1.12109 0 0 1.12109 0 2.5V16.25C0 17.6289 1.12109 18.75 2.5 18.75H3.125L3.75 20H6.25L6.875 18.75H15.625L16.25 20H18.75L19.375 18.75H20C21.3789 18.75 22.5 17.6289 22.5 16.25V2.5C22.5 1.12109 21.3789 0 20 0H2.5ZM8.75 12.5C9.5788 12.5 10.3737 12.1708 10.9597 11.5847C11.5458 10.9987 11.875 10.2038 11.875 9.375C11.875 8.5462 11.5458 7.75134 10.9597 7.16529C10.3737 6.57924 9.5788 6.25 8.75 6.25C7.9212 6.25 7.12634 6.57924 6.54029 7.16529C5.95424 7.75134 5.625 8.5462 5.625 9.375C5.625 10.2038 5.95424 10.9987 6.54029 11.5847C7.12634 12.1708 7.9212 12.5 8.75 12.5ZM8.75 3.125C10.4076 3.125 11.9973 3.78348 13.1694 4.95558C14.3415 6.12769 15 7.7174 15 9.375C15 11.0326 14.3415 12.6223 13.1694 13.7944C11.9973 14.9665 10.4076 15.625 8.75 15.625C7.0924 15.625 5.50269 14.9665 4.33058 13.7944C3.15848 12.6223 2.5 11.0326 2.5 9.375C2.5 7.7174 3.15848 6.12769 4.33058 4.95558C5.50269 3.78348 7.0924 3.125 8.75 3.125ZM18.75 8.64453V13.125C18.75 13.4688 18.4688 13.75 18.125 13.75C17.7812 13.75 17.5 13.4688 17.5 13.125V8.64453C16.7734 8.38672 16.25 7.69141 16.25 6.875C16.25 5.83984 17.0898 5 18.125 5C19.1602 5 20 5.83984 20 6.875C20 7.69141 19.4766 8.38672 18.75 8.64453Z" fill="#004A7C"/>
</g>
<defs>
<clipPath id="clip0_81_9981">
<path d="M0 0H22.5V20H0V0Z" fill="white"/>
</clipPath>
</defs>
</svg>
