<svg width="14" height="16" viewBox="0 0 14 16" fill="none" xmlns="http://www.w3.org/2000/svg">
<g clip-path="url(#clip0_40_1027)">
<path d="M13 0C12.5 0 9 1 9 5.5V9C9 10.1031 9.89688 11 11 11H12V15C12 15.5531 12.4469 16 13 16C13.5531 16 14 15.5531 14 15V11V7.5V1C14 0.446875 13.5531 0 13 0ZM2 0.5C2 0.24375 1.80938 0.03125 1.55313 0.003125C1.29688 -0.025 1.06875 0.14375 1.0125 0.390625L0.065625 4.65C0.021875 4.84688 0 5.04688 0 5.24687C0 6.68125 1.09687 7.85938 2.5 7.9875V15C2.5 15.5531 2.94688 16 3.5 16C4.05312 16 4.5 15.5531 4.5 15V7.9875C5.90312 7.85938 7 6.68125 7 5.24687C7 5.04688 6.97812 4.84688 6.93437 4.65L5.9875 0.390625C5.93125 0.140625 5.69688 -0.025 5.44375 0.003125C5.19062 0.03125 5 0.24375 5 0.5V4.69375C5 4.8625 4.8625 5 4.69375 5C4.53437 5 4.40312 4.87813 4.3875 4.71875L3.99688 0.45625C3.975 0.196875 3.75938 0 3.5 0C3.24062 0 3.025 0.196875 3.00312 0.45625L2.61562 4.71875C2.6 4.87813 2.46875 5 2.30938 5C2.14062 5 2.00312 4.8625 2.00312 4.69375V0.5H2ZM3.50938 5.25H3.5H3.49062L3.5 5.22813L3.50938 5.25Z" fill="#EF4444"/>
</g>
<defs>
<clipPath id="clip0_40_1027">
<path d="M0 0H14V16H0V0Z" fill="white"/>
</clipPath>
</defs>
</svg>
