<svg width="14" height="16" viewBox="0 0 14 16" fill="none" xmlns="http://www.w3.org/2000/svg">
<g clip-path="url(#clip0_130_1647)">
<path d="M13.7063 4.70615C14.0969 4.31553 14.0969 3.68115 13.7063 3.29053L10.7063 0.290527C10.3156 -0.100098 9.68125 -0.100098 9.29062 0.290527C8.9 0.681152 8.9 1.31553 9.29062 1.70615L10.5844 2.9999H1C0.446875 2.9999 0 3.44678 0 3.9999C0 4.55303 0.446875 4.9999 1 4.9999H10.5844L9.29062 6.29365C8.9 6.68428 8.9 7.31865 9.29062 7.70928C9.68125 8.0999 10.3156 8.0999 10.7063 7.70928L13.7063 4.70928V4.70615ZM3.29063 15.7062C3.68125 16.0968 4.31563 16.0968 4.70625 15.7062C5.09688 15.3155 5.09688 14.6812 4.70625 14.2905L3.41563 12.9999H13C13.5531 12.9999 14 12.553 14 11.9999C14 11.4468 13.5531 10.9999 13 10.9999H3.41563L4.70937 9.70615C5.1 9.31553 5.1 8.68115 4.70937 8.29053C4.31875 7.8999 3.68438 7.8999 3.29375 8.29053L0.29375 11.2905C-0.096875 11.6812 -0.096875 12.3155 0.29375 12.7062L3.29375 15.7062H3.29063Z" fill="white" fill-opacity="0.7"/>
</g>
<defs>
<clipPath id="clip0_130_1647">
<path d="M0 0H14V16H0V0Z" fill="white"/>
</clipPath>
</defs>
</svg>
