<svg width="30" height="30" viewBox="0 0 30 30" fill="none" xmlns="http://www.w3.org/2000/svg">
<g clip-path="url(#clip0_29_118)">
<path d="M26.25 15C26.25 13.5226 25.959 12.0597 25.3936 10.6948C24.8283 9.3299 23.9996 8.08971 22.955 7.04505C21.9103 6.00039 20.6701 5.17172 19.3052 4.60636C17.9403 4.04099 16.4774 3.75 15 3.75C13.5226 3.75 12.0597 4.04099 10.6948 4.60636C9.3299 5.17172 8.08971 6.00039 7.04505 7.04505C6.00039 8.08971 5.17172 9.3299 4.60636 10.6948C4.04099 12.0597 3.75 13.5226 3.75 15C3.75 16.4774 4.04099 17.9403 4.60636 19.3052C5.17172 20.6701 6.00039 21.9103 7.04505 22.955C8.08971 23.9996 9.3299 24.8283 10.6948 25.3936C12.0597 25.959 13.5226 26.25 15 26.25C16.4774 26.25 17.9403 25.959 19.3052 25.3936C20.6701 24.8283 21.9103 23.9996 22.955 22.955C23.9996 21.9103 24.8283 20.6701 25.3936 19.3052C25.959 17.9403 26.25 16.4774 26.25 15ZM0 15C0 11.0218 1.58035 7.20644 4.3934 4.3934C7.20644 1.58035 11.0218 0 15 0C18.9782 0 22.7936 1.58035 25.6066 4.3934C28.4196 7.20644 30 11.0218 30 15C30 18.9782 28.4196 22.7936 25.6066 25.6066C22.7936 28.4196 18.9782 30 15 30C11.0218 30 7.20644 28.4196 4.3934 25.6066C1.58035 22.7936 0 18.9782 0 15ZM15 19.6875C16.2432 19.6875 17.4355 19.1936 18.3146 18.3146C19.1936 17.4355 19.6875 16.2432 19.6875 15C19.6875 13.7568 19.1936 12.5645 18.3146 11.6854C17.4355 10.8064 16.2432 10.3125 15 10.3125C13.7568 10.3125 12.5645 10.8064 11.6854 11.6854C10.8064 12.5645 10.3125 13.7568 10.3125 15C10.3125 16.2432 10.8064 17.4355 11.6854 18.3146C12.5645 19.1936 13.7568 19.6875 15 19.6875ZM15 6.5625C17.2378 6.5625 19.3839 7.45145 20.9662 9.03379C22.5486 10.6161 23.4375 12.7622 23.4375 15C23.4375 17.2378 22.5486 19.3839 20.9662 20.9662C19.3839 22.5486 17.2378 23.4375 15 23.4375C12.7622 23.4375 10.6161 22.5486 9.03379 20.9662C7.45145 19.3839 6.5625 17.2378 6.5625 15C6.5625 12.7622 7.45145 10.6161 9.03379 9.03379C10.6161 7.45145 12.7622 6.5625 15 6.5625ZM13.125 15C13.125 14.5027 13.3225 14.0258 13.6742 13.6742C14.0258 13.3225 14.5027 13.125 15 13.125C15.4973 13.125 15.9742 13.3225 16.3258 13.6742C16.6775 14.0258 16.875 14.5027 16.875 15C16.875 15.4973 16.6775 15.9742 16.3258 16.3258C15.9742 16.6775 15.4973 16.875 15 16.875C14.5027 16.875 14.0258 16.6775 13.6742 16.3258C13.3225 15.9742 13.125 15.4973 13.125 15Z" fill="#00A9E0"/>
</g>
<defs>
<clipPath id="clip0_29_118">
<path d="M0 0H30V30H0V0Z" fill="white"/>
</clipPath>
</defs>
</svg>
