<svg width="18" height="16" viewBox="0 0 18 16" fill="none" xmlns="http://www.w3.org/2000/svg">
<g clip-path="url(#clip0_79_3715)">
<path d="M12.0004 11C11.4473 11 11.0004 11.4468 11.0004 12C11.0004 12.5531 11.4473 13 12.0004 13H17.0004C17.5535 13 18.0004 12.5531 18.0004 12V6.99995C18.0004 6.44683 17.5535 5.99995 17.0004 5.99995C16.4473 5.99995 16.0004 6.44683 16.0004 6.99995V9.58433L10.7066 4.2937C10.316 3.90308 9.68164 3.90308 9.29102 4.2937L6.00039 7.58433L1.70664 3.2937C1.31602 2.90308 0.681641 2.90308 0.291016 3.2937C-0.0996094 3.68433 -0.0996094 4.3187 0.291016 4.70933L5.29102 9.70933C5.68164 10.1 6.31602 10.1 6.70664 9.70933L10.0004 6.41558L14.5848 11H12.0004Z" fill="#EF4444"/>
</g>
<defs>
<clipPath id="clip0_79_3715">
<path d="M0 0H18V16H0V0Z" fill="white"/>
</clipPath>
</defs>
</svg>
