<svg width="18" height="16" viewBox="0 0 18 16" fill="none" xmlns="http://www.w3.org/2000/svg">
<g clip-path="url(#clip0_40_975)">
<path d="M11.9999 5C11.4468 5 10.9999 4.55313 10.9999 4C10.9999 3.44687 11.4468 3 11.9999 3H16.9999C17.553 3 17.9999 3.44687 17.9999 4V9C17.9999 9.55312 17.553 10 16.9999 10C16.4468 10 15.9999 9.55312 15.9999 9V6.41563L10.7062 11.7063C10.3155 12.0969 9.68115 12.0969 9.29053 11.7063L5.9999 8.41562L1.70615 12.7063C1.31553 13.0969 0.681152 13.0969 0.290527 12.7063C-0.100098 12.3156 -0.100098 11.6812 0.290527 11.2906L5.29053 6.29063C5.68115 5.9 6.31553 5.9 6.70615 6.29063L9.9999 9.58438L14.5843 5H11.9999Z" fill="#00A9E0"/>
</g>
<defs>
<clipPath id="clip0_40_975">
<path d="M0 0H18V16H0V0Z" fill="white"/>
</clipPath>
</defs>
</svg>
