<svg width="18" height="16" viewBox="0 0 18 16" fill="none" xmlns="http://www.w3.org/2000/svg">
<g clip-path="url(#clip0_81_9839)">
<path d="M12.0004 5C11.4473 5 11.0004 4.55313 11.0004 4C11.0004 3.44687 11.4473 3 12.0004 3H17.0004C17.5535 3 18.0004 3.44687 18.0004 4V9C18.0004 9.55312 17.5535 10 17.0004 10C16.4473 10 16.0004 9.55312 16.0004 9V6.41563L10.7066 11.7063C10.316 12.0969 9.68164 12.0969 9.29102 11.7063L6.00039 8.41562L1.70664 12.7063C1.31602 13.0969 0.681641 13.0969 0.291016 12.7063C-0.0996094 12.3156 -0.0996094 11.6812 0.291016 11.2906L5.29102 6.29063C5.68164 5.9 6.31602 5.9 6.70664 6.29063L10.0004 9.58438L14.5848 5H12.0004Z" fill="#00A9E0"/>
</g>
<defs>
<clipPath id="clip0_81_9839">
<path d="M0 0H18V16H0V0Z" fill="white"/>
</clipPath>
</defs>
</svg>
