<svg width="30" height="30" viewBox="0 0 30 30" fill="none" xmlns="http://www.w3.org/2000/svg">
<path d="M0 0H30V30H0V0Z" stroke="#E5E7EB"/>
<path d="M13.377 27.4863L2.78906 17.6016C2.54297 17.3731 2.30859 17.127 2.0918 16.875H7.18945C8.51367 16.875 9.70898 16.0781 10.2188 14.8535L10.834 13.377L13.7227 19.793C13.9453 20.291 14.4316 20.6133 14.9766 20.6192C15.5215 20.625 16.0195 20.3262 16.2656 19.8399L18.75 14.8652L18.8496 15.0645C19.4062 16.1777 20.543 16.8809 21.7852 16.8809H27.9082C27.6914 17.1328 27.457 17.3789 27.2109 17.6074L16.623 27.4863C16.1836 27.8965 15.6035 28.125 15 28.125C14.3965 28.125 13.8164 27.8965 13.377 27.4863ZM29.5137 14.0625H21.7793C21.6035 14.0625 21.4395 13.9629 21.3574 13.8047L19.998 11.0918C19.7578 10.6172 19.2715 10.3125 18.7383 10.3125C18.2051 10.3125 17.7188 10.6113 17.4785 11.0918L15.0527 15.9434L12.0645 9.26954C11.8359 8.75977 11.3203 8.43165 10.7637 8.44337C10.207 8.45509 9.70312 8.78907 9.48633 9.31055L7.62305 13.7813C7.55273 13.957 7.37695 14.0684 7.18945 14.0684H0.9375C0.785156 14.0684 0.644531 14.0918 0.509766 14.1328C0.175781 13.1953 0 12.1992 0 11.1856V10.8457C0 6.75001 2.95898 3.25782 6.99609 2.58399C9.66797 2.13868 12.3867 3.01173 14.2969 4.92188L15 5.62501L15.7031 4.92188C17.6133 3.01173 20.332 2.13868 23.0039 2.58399C27.041 3.25782 30 6.75001 30 10.8457V11.1856C30 12.1758 29.8359 13.1484 29.5137 14.0625Z" fill="#00A9E0"/>
</svg>
