<svg width="11" height="14" viewBox="0 0 11 14" fill="none" xmlns="http://www.w3.org/2000/svg">
<g clip-path="url(#clip0_80_7135)">
<path d="M5.86807 1.13203C5.52627 0.790237 4.97119 0.790237 4.6294 1.13203L0.254395 5.50703C-0.0874024 5.84883 -0.0874024 6.40391 0.254395 6.74571C0.596191 7.0875 1.15127 7.0875 1.49307 6.74571L4.3751 3.86094V12.25C4.3751 12.734 4.76611 13.125 5.2501 13.125C5.73408 13.125 6.1251 12.734 6.1251 12.25V3.86094L9.00713 6.74297C9.34893 7.08477 9.90401 7.08477 10.2458 6.74297C10.5876 6.40118 10.5876 5.8461 10.2458 5.5043L5.8708 1.1293L5.86807 1.13203Z" fill="#EF4444"/>
</g>
<defs>
<clipPath id="clip0_80_7135">
<path d="M0 0H10.5V14H0V0Z" fill="white"/>
</clipPath>
</defs>
</svg>
