<svg width="34" height="30" viewBox="0 0 34 30" fill="none" xmlns="http://www.w3.org/2000/svg">
<g clip-path="url(#clip0_81_10699)">
<path d="M33.7383 14.9707C33.7383 16.0254 32.8594 16.8516 31.8633 16.8516H29.9883L30.0293 26.2383C30.0293 26.3965 30.0176 26.5547 30 26.7129V27.6562C30 28.9512 28.9512 30 27.6562 30H26.7188C26.6543 30 26.5898 30 26.5254 29.9941C26.4434 30 26.3613 30 26.2793 30H24.375H22.9688C21.6738 30 20.625 28.9512 20.625 27.6562V26.25V22.5C20.625 21.4629 19.7871 20.625 18.75 20.625H15C13.9629 20.625 13.125 21.4629 13.125 22.5V26.25V27.6562C13.125 28.9512 12.0762 30 10.7812 30H9.375H7.50586C7.41797 30 7.33008 29.9941 7.24219 29.9883C7.17188 29.9941 7.10156 30 7.03125 30H6.09375C4.79883 30 3.75 28.9512 3.75 27.6562V21.0938C3.75 21.041 3.75 20.9824 3.75586 20.9297V16.8516H1.875C0.820312 16.8516 0 16.0312 0 14.9707C0 14.4434 0.175781 13.9746 0.585938 13.5645L15.6094 0.46875C16.0195 0.0585938 16.4883 0 16.8984 0C17.3086 0 17.7773 0.117188 18.1289 0.410156L33.0938 13.5645C33.5625 13.9746 33.7969 14.4434 33.7383 14.9707Z" fill="#00A9E0"/>
</g>
<defs>
<clipPath id="clip0_81_10699">
<path d="M0 0H33.75V30H0V0Z" fill="white"/>
</clipPath>
</defs>
</svg>
