<svg width="20" height="20" viewBox="0 0 20 20" fill="none" xmlns="http://www.w3.org/2000/svg">
<path d="M0 0H20V20H0V0Z" stroke="#E5E7EB"/>
<path d="M1.25 1.25C1.94141 1.25 2.5 1.80859 2.5 2.5V15.625C2.5 15.9688 2.78125 16.25 3.125 16.25H18.75C19.4414 16.25 20 16.8086 20 17.5C20 18.1914 19.4414 18.75 18.75 18.75H3.125C1.39844 18.75 0 17.3516 0 15.625V2.5C0 1.80859 0.558594 1.25 1.25 1.25ZM6.25 8.75C6.94141 8.75 7.5 9.30859 7.5 10V12.5C7.5 13.1914 6.94141 13.75 6.25 13.75C5.55859 13.75 5 13.1914 5 12.5V10C5 9.30859 5.55859 8.75 6.25 8.75ZM11.25 6.25V12.5C11.25 13.1914 10.6914 13.75 10 13.75C9.30859 13.75 8.75 13.1914 8.75 12.5V6.25C8.75 5.55859 9.30859 5 10 5C10.6914 5 11.25 5.55859 11.25 6.25ZM13.75 7.5C14.4414 7.5 15 8.05859 15 8.75V12.5C15 13.1914 14.4414 13.75 13.75 13.75C13.0586 13.75 12.5 13.1914 12.5 12.5V8.75C12.5 8.05859 13.0586 7.5 13.75 7.5ZM18.75 3.75V12.5C18.75 13.1914 18.1914 13.75 17.5 13.75C16.8086 13.75 16.25 13.1914 16.25 12.5V3.75C16.25 3.05859 16.8086 2.5 17.5 2.5C18.1914 2.5 18.75 3.05859 18.75 3.75Z" fill="#004A7C"/>
</svg>
