<svg width="21" height="24" viewBox="0 0 21 24" fill="none" xmlns="http://www.w3.org/2000/svg">
<g clip-path="url(#clip0_80_7060)">
<path d="M16.3781 2.09068C16.6547 1.4485 16.4484 0.698495 15.8812 0.285995C15.3141 -0.126505 14.5406 -0.0890046 14.0109 0.37037L2.01093 10.8704C1.54218 11.2829 1.37343 11.9438 1.59374 12.5251C1.81405 13.1063 2.37655 13.5001 2.99999 13.5001H8.22655L4.62186 21.9094C4.3453 22.5516 4.55155 23.3016 5.11874 23.7141C5.68593 24.1266 6.45937 24.0891 6.98905 23.6297L18.9891 13.1297C19.4578 12.7172 19.6266 12.0563 19.4062 11.4751C19.1859 10.8938 18.6281 10.5047 18 10.5047H12.7734L16.3781 2.09068Z" fill="#00A9E0"/>
</g>
<defs>
<clipPath id="clip0_80_7060">
<path d="M0 0H21V24H0V0Z" fill="white"/>
</clipPath>
</defs>
</svg>
