<svg width="30" height="30" viewBox="0 0 30 30" fill="none" xmlns="http://www.w3.org/2000/svg">
<g clip-path="url(#clip0_29_1313)">
<path d="M27.5801 0.550781C27.7559 0.732422 27.8906 0.9375 27.9844 1.1543C28.0781 1.37109 28.125 1.61133 28.125 1.86914V1.875V7.5C28.125 8.53711 27.2871 9.375 26.25 9.375C25.2129 9.375 24.375 8.53711 24.375 7.5V6.4043L18.1992 12.5742C17.5078 13.2656 16.3945 13.3125 15.6504 12.6738L10.3125 8.0918L4.96875 12.6738C4.18359 13.3477 3 13.2539 2.32617 12.4688C1.65234 11.6836 1.74609 10.5 2.53125 9.82617L9.09375 4.20117C9.79688 3.59766 10.834 3.59766 11.5371 4.20117L16.7812 8.69531L21.7207 3.75H20.625C19.5879 3.75 18.75 2.91211 18.75 1.875C18.75 0.837891 19.5879 0 20.625 0H26.25C26.7656 0 27.2344 0.210938 27.5742 0.544922L27.5801 0.550781ZM0 17.8125C0 16.2598 1.25977 15 2.8125 15H27.1875C28.7402 15 30 16.2598 30 17.8125V27.1875C30 28.7402 28.7402 30 27.1875 30H2.8125C1.25977 30 0 28.7402 0 27.1875V17.8125ZM2.8125 24.375V27.1875H5.625C5.625 25.6348 4.36523 24.375 2.8125 24.375ZM5.625 17.8125H2.8125V20.625C4.36523 20.625 5.625 19.3652 5.625 17.8125ZM27.1875 24.375C25.6348 24.375 24.375 25.6348 24.375 27.1875H27.1875V24.375ZM24.375 17.8125C24.375 19.3652 25.6348 20.625 27.1875 20.625V17.8125H24.375ZM18.75 22.5C18.75 21.5054 18.3549 20.5516 17.6516 19.8484C16.9484 19.1451 15.9946 18.75 15 18.75C14.0054 18.75 13.0516 19.1451 12.3483 19.8484C11.6451 20.5516 11.25 21.5054 11.25 22.5C11.25 23.4946 11.6451 24.4484 12.3483 25.1516C13.0516 25.8549 14.0054 26.25 15 26.25C15.9946 26.25 16.9484 25.8549 17.6516 25.1516C18.3549 24.4484 18.75 23.4946 18.75 22.5Z" fill="#004A7C"/>
</g>
<defs>
<clipPath id="clip0_29_1313">
<path d="M0 0H30V30H0V0Z" fill="white"/>
</clipPath>
</defs>
</svg>
