<svg width="16" height="16" viewBox="0 0 16 16" fill="none" xmlns="http://www.w3.org/2000/svg">
<g clip-path="url(#clip0_79_6197)">
<path d="M15.5969 0.196884C15.85 0.384384 16 0.684384 16 1.00001V3.25001V11.5C16 12.8813 14.6562 14 13 14C11.3438 14 10 12.8813 10 11.5C10 10.1188 11.3438 9.00001 13 9.00001C13.35 9.00001 13.6875 9.05001 14 9.14376V4.59376L6 6.99376V13.5C6 14.8813 4.65625 16 3 16C1.34375 16 0 14.8813 0 13.5C0 12.1188 1.34375 11 3 11C3.35 11 3.6875 11.05 4 11.1438V6.25001V4.00001C4 3.55938 4.29063 3.16876 4.7125 3.04063L14.7125 0.0406342C15.0156 -0.0499908 15.3438 0.00625917 15.5969 0.196884Z" fill="#00A9E0"/>
</g>
<defs>
<clipPath id="clip0_79_6197">
<path d="M0 0H16V16H0V0Z" fill="white"/>
</clipPath>
</defs>
</svg>
