<svg width="20" height="20" viewBox="0 0 20 20" fill="none" xmlns="http://www.w3.org/2000/svg">
<g clip-path="url(#clip0_81_9948)">
<path d="M18.3867 0.367188C18.5039 0.488281 18.5938 0.625 18.6562 0.769531C18.7188 0.914063 18.75 1.07422 18.75 1.24609V1.25V5C18.75 5.69141 18.1914 6.25 17.5 6.25C16.8086 6.25 16.25 5.69141 16.25 5V4.26953L12.1328 8.38281C11.6719 8.84375 10.9297 8.875 10.4336 8.44922L6.875 5.39453L3.3125 8.44922C2.78906 8.89844 2 8.83594 1.55078 8.3125C1.10156 7.78906 1.16406 7 1.6875 6.55078L6.0625 2.80078C6.53125 2.39844 7.22266 2.39844 7.69141 2.80078L11.1875 5.79688L14.4805 2.5H13.75C13.0586 2.5 12.5 1.94141 12.5 1.25C12.5 0.558594 13.0586 0 13.75 0H17.5C17.8438 0 18.1562 0.140625 18.3828 0.363281L18.3867 0.367188ZM0 11.875C0 10.8398 0.839844 10 1.875 10H18.125C19.1602 10 20 10.8398 20 11.875V18.125C20 19.1602 19.1602 20 18.125 20H1.875C0.839844 20 0 19.1602 0 18.125V11.875ZM1.875 16.25V18.125H3.75C3.75 17.0898 2.91016 16.25 1.875 16.25ZM3.75 11.875H1.875V13.75C2.91016 13.75 3.75 12.9102 3.75 11.875ZM18.125 16.25C17.0898 16.25 16.25 17.0898 16.25 18.125H18.125V16.25ZM16.25 11.875C16.25 12.9102 17.0898 13.75 18.125 13.75V11.875H16.25ZM12.5 15C12.5 14.337 12.2366 13.7011 11.7678 13.2322C11.2989 12.7634 10.663 12.5 10 12.5C9.33696 12.5 8.70107 12.7634 8.23223 13.2322C7.76339 13.7011 7.5 14.337 7.5 15C7.5 15.663 7.76339 16.2989 8.23223 16.7678C8.70107 17.2366 9.33696 17.5 10 17.5C10.663 17.5 11.2989 17.2366 11.7678 16.7678C12.2366 16.2989 12.5 15.663 12.5 15Z" fill="#004A7C"/>
</g>
<defs>
<clipPath id="clip0_81_9948">
<path d="M0 0H20V20H0V0Z" fill="white"/>
</clipPath>
</defs>
</svg>
