<svg width="18" height="16" viewBox="0 0 18 16" fill="none" xmlns="http://www.w3.org/2000/svg">
<g clip-path="url(#clip0_40_986)">
<path d="M12.5 3V3.02187C12.3344 3.00937 12.1687 3 12 3H8C7.48438 3 6.98438 3.06562 6.50625 3.1875C6.50312 3.125 6.5 3.0625 6.5 3C6.5 1.34375 7.84375 0 9.5 0C11.1562 0 12.5 1.34375 12.5 3ZM12 4C12.1094 4 12.2188 4.00313 12.325 4.00938C12.4563 4.01875 12.5875 4.03125 12.7188 4.05C13.2688 3.40938 14.0875 3 15 3H15.3594C15.6844 3 15.9219 3.30625 15.8438 3.62188L15.4125 5.34688C15.9062 5.80938 16.3094 6.37187 16.5844 7H17C17.5531 7 18 7.44688 18 8V11C18 11.5531 17.5531 12 17 12H16C15.7156 12.3781 15.3781 12.7156 15 13V15C15 15.5531 14.5531 16 14 16H13C12.4469 16 12 15.5531 12 15V14H8V15C8 15.5531 7.55312 16 7 16H6C5.44688 16 5 15.5531 5 15V13C3.90937 12.1812 3.16563 10.9281 3.025 9.5H2.125C0.95 9.5 0 8.55 0 7.375C0 6.2 0.95 5.25 2.125 5.25H2.25C2.66563 5.25 3 5.58437 3 6C3 6.41563 2.66563 6.75 2.25 6.75H2.125C1.78125 6.75 1.5 7.03125 1.5 7.375C1.5 7.71875 1.78125 8 2.125 8H3.1C3.47812 6.13125 4.90312 4.64062 6.73438 4.1625C7.1375 4.05625 7.5625 4 8 4H12ZM14 8.25C14 8.05109 13.921 7.86032 13.7803 7.71967C13.6397 7.57902 13.4489 7.5 13.25 7.5C13.0511 7.5 12.8603 7.57902 12.7197 7.71967C12.579 7.86032 12.5 8.05109 12.5 8.25C12.5 8.44891 12.579 8.63968 12.7197 8.78033C12.8603 8.92098 13.0511 9 13.25 9C13.4489 9 13.6397 8.92098 13.7803 8.78033C13.921 8.63968 14 8.44891 14 8.25Z" fill="#10B981"/>
</g>
<defs>
<clipPath id="clip0_40_986">
<path d="M0 0H18V16H0V0Z" fill="white"/>
</clipPath>
</defs>
</svg>
