<svg width="23" height="20" viewBox="0 0 23 20" fill="none" xmlns="http://www.w3.org/2000/svg">
<g clip-path="url(#clip0_81_9959)">
<path d="M15.625 3.75V3.77734C15.418 3.76172 15.2109 3.75 15 3.75H10C9.35547 3.75 8.73047 3.83203 8.13281 3.98438C8.12891 3.90625 8.125 3.82812 8.125 3.75C8.125 1.67969 9.80469 0 11.875 0C13.9453 0 15.625 1.67969 15.625 3.75ZM15 5C15.1367 5 15.2734 5.00391 15.4062 5.01172C15.5703 5.02344 15.7344 5.03906 15.8984 5.0625C16.5859 4.26172 17.6094 3.75 18.75 3.75H19.1992C19.6055 3.75 19.9023 4.13281 19.8047 4.52734L19.2656 6.68359C19.8828 7.26172 20.3867 7.96484 20.7305 8.75H21.25C21.9414 8.75 22.5 9.30859 22.5 10V13.75C22.5 14.4414 21.9414 15 21.25 15H20C19.6445 15.4727 19.2227 15.8945 18.75 16.25V18.75C18.75 19.4414 18.1914 20 17.5 20H16.25C15.5586 20 15 19.4414 15 18.75V17.5H10V18.75C10 19.4414 9.44141 20 8.75 20H7.5C6.80859 20 6.25 19.4414 6.25 18.75V16.25C4.88672 15.2266 3.95703 13.6602 3.78125 11.875H2.65625C1.1875 11.875 0 10.6875 0 9.21875C0 7.75 1.1875 6.5625 2.65625 6.5625H2.8125C3.33203 6.5625 3.75 6.98047 3.75 7.5C3.75 8.01953 3.33203 8.4375 2.8125 8.4375H2.65625C2.22656 8.4375 1.875 8.78906 1.875 9.21875C1.875 9.64844 2.22656 10 2.65625 10H3.875C4.34766 7.66406 6.12891 5.80078 8.41797 5.20312C8.92188 5.07031 9.45312 5 10 5H15ZM17.5 10.3125C17.5 10.0639 17.4012 9.8254 17.2254 9.64959C17.0496 9.47377 16.8111 9.375 16.5625 9.375C16.3139 9.375 16.0754 9.47377 15.8996 9.64959C15.7238 9.8254 15.625 10.0639 15.625 10.3125C15.625 10.5611 15.7238 10.7996 15.8996 10.9754C16.0754 11.1512 16.3139 11.25 16.5625 11.25C16.8111 11.25 17.0496 11.1512 17.2254 10.9754C17.4012 10.7996 17.5 10.5611 17.5 10.3125Z" fill="#004A7C"/>
</g>
<defs>
<clipPath id="clip0_81_9959">
<path d="M0 0H22.5V20H0V0Z" fill="white"/>
</clipPath>
</defs>
</svg>
