<svg width="27" height="24" viewBox="0 0 27 24" fill="none" xmlns="http://www.w3.org/2000/svg">
<g clip-path="url(#clip0_80_7070)">
<path d="M18.75 4.5V4.53281C18.5016 4.51406 18.2531 4.5 18 4.5H12C11.2266 4.5 10.4766 4.59844 9.75937 4.78125C9.75469 4.6875 9.75 4.59375 9.75 4.5C9.75 2.01562 11.7656 0 14.25 0C16.7344 0 18.75 2.01562 18.75 4.5ZM18 6C18.1641 6 18.3281 6.00469 18.4875 6.01406C18.6844 6.02813 18.8813 6.04688 19.0781 6.075C19.9031 5.11406 21.1313 4.5 22.5 4.5H23.0391C23.5266 4.5 23.8828 4.95937 23.7656 5.43281L23.1188 8.02031C23.8594 8.71406 24.4641 9.55781 24.8766 10.5H25.5C26.3297 10.5 27 11.1703 27 12V16.5C27 17.3297 26.3297 18 25.5 18H24C23.5734 18.5672 23.0672 19.0734 22.5 19.5V22.5C22.5 23.3297 21.8297 24 21 24H19.5C18.6703 24 18 23.3297 18 22.5V21H12V22.5C12 23.3297 11.3297 24 10.5 24H9C8.17031 24 7.5 23.3297 7.5 22.5V19.5C5.86406 18.2719 4.74844 16.3922 4.5375 14.25H3.1875C1.425 14.25 0 12.825 0 11.0625C0 9.3 1.425 7.875 3.1875 7.875H3.375C3.99844 7.875 4.5 8.37656 4.5 9C4.5 9.62344 3.99844 10.125 3.375 10.125H3.1875C2.67188 10.125 2.25 10.5469 2.25 11.0625C2.25 11.5781 2.67188 12 3.1875 12H4.65C5.21719 9.19687 7.35469 6.96094 10.1016 6.24375C10.7063 6.08437 11.3438 6 12 6H18ZM21 12.375C21 12.0766 20.8815 11.7905 20.6705 11.5795C20.4595 11.3685 20.1734 11.25 19.875 11.25C19.5766 11.25 19.2905 11.3685 19.0795 11.5795C18.8685 11.7905 18.75 12.0766 18.75 12.375C18.75 12.6734 18.8685 12.9595 19.0795 13.1705C19.2905 13.3815 19.5766 13.5 19.875 13.5C20.1734 13.5 20.4595 13.3815 20.6705 13.1705C20.8815 12.9595 21 12.6734 21 12.375Z" fill="#00A9E0"/>
</g>
<defs>
<clipPath id="clip0_80_7070">
<path d="M0 0H27V24H0V0Z" fill="white"/>
</clipPath>
</defs>
</svg>
