<svg width="27" height="30" viewBox="0 0 27 30" fill="none" xmlns="http://www.w3.org/2000/svg">
<g clip-path="url(#clip0_135_4993)">
<path d="M3.75 4.6875C3.23438 4.6875 2.8125 5.10938 2.8125 5.625V24.375C2.8125 24.8906 3.23438 25.3125 3.75 25.3125H22.5C23.0156 25.3125 23.4375 24.8906 23.4375 24.375V5.625C23.4375 5.10938 23.0156 4.6875 22.5 4.6875H3.75ZM0 5.625C0 3.55664 1.68164 1.875 3.75 1.875H22.5C24.5684 1.875 26.25 3.55664 26.25 5.625V24.375C26.25 26.4434 24.5684 28.125 22.5 28.125H3.75C1.68164 28.125 0 26.4434 0 24.375V5.625ZM11.7188 20.1562V16.4062H7.96875C7.18945 16.4062 6.5625 15.7793 6.5625 15C6.5625 14.2207 7.18945 13.5938 7.96875 13.5938H11.7188V9.84375C11.7188 9.06445 12.3457 8.4375 13.125 8.4375C13.9043 8.4375 14.5312 9.06445 14.5312 9.84375V13.5938H18.2812C19.0605 13.5938 19.6875 14.2207 19.6875 15C19.6875 15.7793 19.0605 16.4062 18.2812 16.4062H14.5312V20.1562C14.5312 20.9355 13.9043 21.5625 13.125 21.5625C12.3457 21.5625 11.7188 20.9355 11.7188 20.1562Z" fill="#00A9E0"/>
</g>
<defs>
<clipPath id="clip0_135_4993">
<path d="M0 0H26.25V30H0V0Z" fill="white"/>
</clipPath>
</defs>
</svg>
