<svg width="30" height="30" viewBox="0 0 30 30" fill="none" xmlns="http://www.w3.org/2000/svg">
<g clip-path="url(#clip0_135_4943)">
<path d="M27.1875 15C27.1875 11.7677 25.9035 8.66774 23.6179 6.38214C21.3323 4.09654 18.2323 2.8125 15 2.8125C11.7677 2.8125 8.66774 4.09654 6.38214 6.38214C4.09654 8.66774 2.8125 11.7677 2.8125 15C2.8125 18.2323 4.09654 21.3323 6.38214 23.6179C8.66774 25.9035 11.7677 27.1875 15 27.1875C18.2323 27.1875 21.3323 25.9035 23.6179 23.6179C25.9035 21.3323 27.1875 18.2323 27.1875 15ZM0 15C0 11.0218 1.58035 7.20644 4.3934 4.3934C7.20644 1.58035 11.0218 0 15 0C18.9782 0 22.7936 1.58035 25.6066 4.3934C28.4196 7.20644 30 11.0218 30 15C30 18.9782 28.4196 22.7936 25.6066 25.6066C22.7936 28.4196 18.9782 30 15 30C11.0218 30 7.20644 28.4196 4.3934 25.6066C1.58035 22.7936 0 18.9782 0 15ZM9.94922 9.68555C10.4121 8.37891 11.6543 7.5 13.043 7.5H16.459C18.5039 7.5 20.1562 9.1582 20.1562 11.1973C20.1562 12.5215 19.4473 13.7461 18.2988 14.4082L16.4062 15.4922C16.3945 16.2539 15.7676 16.875 15 16.875C14.2207 16.875 13.5938 16.248 13.5938 15.4688V14.6777C13.5938 14.1738 13.8633 13.7109 14.3027 13.459L16.8984 11.9707C17.1738 11.8125 17.3438 11.5195 17.3438 11.2031C17.3438 10.7109 16.9453 10.3184 16.459 10.3184H13.043C12.8438 10.3184 12.668 10.4414 12.6035 10.6289L12.5801 10.6992C12.3223 11.4316 11.5137 11.8125 10.7871 11.5547C10.0605 11.2969 9.67383 10.4883 9.93164 9.76172L9.95508 9.69141L9.94922 9.68555ZM13.125 20.625C13.125 20.1277 13.3225 19.6508 13.6742 19.2992C14.0258 18.9475 14.5027 18.75 15 18.75C15.4973 18.75 15.9742 18.9475 16.3258 19.2992C16.6775 19.6508 16.875 20.1277 16.875 20.625C16.875 21.1223 16.6775 21.5992 16.3258 21.9508C15.9742 22.3025 15.4973 22.5 15 22.5C14.5027 22.5 14.0258 22.3025 13.6742 21.9508C13.3225 21.5992 13.125 21.1223 13.125 20.625Z" fill="#00A9E0"/>
</g>
<defs>
<clipPath id="clip0_135_4943">
<path d="M0 0H30V30H0V0Z" fill="white"/>
</clipPath>
</defs>
</svg>
