<svg width="27" height="24" viewBox="0 0 27 24" fill="none" xmlns="http://www.w3.org/2000/svg">
<g clip-path="url(#clip0_29_154)">
<path d="M18 7.5C17.1703 7.5 16.5 6.82969 16.5 6C16.5 5.17031 17.1703 4.5 18 4.5H25.5C26.3297 4.5 27 5.17031 27 6V13.5C27 14.3297 26.3297 15 25.5 15C24.6703 15 24 14.3297 24 13.5V9.62344L16.0594 17.5594C15.4734 18.1453 14.5219 18.1453 13.9359 17.5594L9.00001 12.6234L2.55938 19.0594C1.97344 19.6453 1.02188 19.6453 0.435944 19.0594C-0.149994 18.4734 -0.149994 17.5219 0.435944 16.9359L7.93594 9.43594C8.52188 8.85 9.47344 8.85 10.0594 9.43594L15 14.3766L21.8766 7.5H18Z" fill="#EF4444"/>
</g>
<defs>
<clipPath id="clip0_29_154">
<path d="M0 0H27V24H0V0Z" fill="white"/>
</clipPath>
</defs>
</svg>
