<svg width="20" height="20" viewBox="0 0 20 20" fill="none" xmlns="http://www.w3.org/2000/svg">
<g clip-path="url(#clip0_85_12841)">
<path d="M10 0C10.1797 0 10.3594 0.0390625 10.5235 0.113281L17.8789 3.23438C18.7383 3.59766 19.3789 4.44531 19.375 5.46875C19.3555 9.34375 17.7617 16.4336 11.0313 19.6562C10.3789 19.9688 9.62111 19.9688 8.96877 19.6562C2.2383 16.4336 0.644549 9.34375 0.625018 5.46875C0.621112 4.44531 1.26174 3.59766 2.12111 3.23438L9.48049 0.113281C9.64064 0.0390625 9.82033 0 10 0ZM10 2.60938V17.375C15.3906 14.7656 16.8399 8.98828 16.875 5.52344L10 2.60938Z" fill="#3B82F6"/>
</g>
<defs>
<clipPath id="clip0_85_12841">
<path d="M0 0H20V20H0V0Z" fill="white"/>
</clipPath>
</defs>
</svg>
