<svg width="34" height="30" viewBox="0 0 34 30" fill="none" xmlns="http://www.w3.org/2000/svg">
<path d="M0 0H33.75V30H0V0Z" stroke="#E5E7EB"/>
<path d="M32.0857 6.08203L28.7283 0.767578C28.4294 0.292969 27.8962 0 27.3279 0H6.42162C5.85326 0 5.32006 0.292969 5.02123 0.767578L1.65795 6.08203C-0.0764235 8.82422 1.45873 12.6387 4.69897 13.0781C4.93334 13.1074 5.17358 13.125 5.40795 13.125C6.93725 13.125 8.29662 12.457 9.22826 11.4258C10.1599 12.457 11.5193 13.125 13.0486 13.125C14.5779 13.125 15.9372 12.457 16.8689 11.4258C17.8005 12.457 19.1599 13.125 20.6892 13.125C22.2244 13.125 23.5779 12.457 24.5095 11.4258C25.447 12.457 26.8005 13.125 28.3298 13.125C28.5701 13.125 28.8044 13.1074 29.0388 13.0781C32.2908 12.6445 33.8318 8.83008 32.0915 6.08203H32.0857ZM29.279 14.9355H29.2732C28.9626 14.9766 28.6462 15 28.324 15C27.5974 15 26.9001 14.8887 26.2497 14.6895V22.5H7.49975V14.6836C6.8435 14.8887 6.14037 15 5.41381 15C5.09155 15 4.76928 14.9766 4.45873 14.9355H4.45287C4.21264 14.9004 3.97826 14.8594 3.74975 14.8008V22.5V26.25C3.74975 28.3184 5.43139 30 7.49975 30H26.2497C28.3181 30 29.9997 28.3184 29.9997 26.25V22.5V14.8008C29.7654 14.8594 29.531 14.9062 29.279 14.9355Z" fill="#00A9E0"/>
</svg>
