<svg width="12" height="16" viewBox="0 0 12 16" fill="none" xmlns="http://www.w3.org/2000/svg">
<g clip-path="url(#clip0_130_207)">
<path d="M0 1C0 0.446875 0.446875 0 1 0H2H10H11C11.5531 0 12 0.446875 12 1C12 1.55313 11.5531 2 11 2V2.34375C11 3.66875 10.4719 4.94063 9.53438 5.87813L7.41563 8L9.5375 10.1219C10.475 11.0594 11.0031 12.3313 11.0031 13.6562V14C11.5563 14 12.0031 14.4469 12.0031 15C12.0031 15.5531 11.5563 16 11.0031 16H10H2H1C0.446875 16 0 15.5531 0 15C0 14.4469 0.446875 14 1 14V13.6562C1 12.3313 1.52813 11.0594 2.46563 10.1219L4.58437 8L2.46563 5.87813C1.52813 4.94063 1 3.66875 1 2.34375V2C0.446875 2 0 1.55313 0 1ZM3 2V2.34375C3 3.14062 3.31562 3.90312 3.87812 4.46562L6 6.58437L8.12187 4.4625C8.68437 3.9 9 3.1375 9 2.34063V2H3ZM3 14H9V13.6562C9 12.8594 8.68437 12.0969 8.12187 11.5344L6 9.41562L3.87812 11.5375C3.31562 12.1 3 12.8625 3 13.6594V14.0031V14Z" fill="#00A9E0"/>
</g>
<defs>
<clipPath id="clip0_130_207">
<path d="M0 0H12V16H0V0Z" fill="white"/>
</clipPath>
</defs>
</svg>
