<svg width="25" height="20" viewBox="0 0 25 20" fill="none" xmlns="http://www.w3.org/2000/svg">
<g clip-path="url(#clip0_85_12851)">
<path d="M20.8984 1.60156C20.5312 1.23438 20.5312 0.640627 20.8984 0.277346C21.2656 -0.0859356 21.8594 -0.0898418 22.2227 0.277346L24.7227 2.77735C24.8984 2.95313 24.9961 3.19141 24.9961 3.44141C24.9961 3.69141 24.8984 3.92969 24.7227 4.10547L22.2227 6.60547C21.8555 6.97266 21.2617 6.97266 20.8984 6.60547C20.5352 6.23828 20.5312 5.64453 20.8984 5.28125L21.7969 4.38281L15 4.375C14.4805 4.375 14.0625 3.95703 14.0625 3.4375C14.0625 2.91797 14.4805 2.5 15 2.5H21.8008L20.8984 1.60156ZM4.10156 14.7266L3.20312 15.625H10C10.5195 15.625 10.9375 16.043 10.9375 16.5625C10.9375 17.082 10.5195 17.5 10 17.5H3.19922L4.09766 18.3984C4.46484 18.7656 4.46484 19.3594 4.09766 19.7227C3.73047 20.0859 3.13672 20.0898 2.77344 19.7227L0.273438 17.2266C0.0976562 17.0508 0 16.8125 0 16.5625C0 16.3125 0.0976562 16.0742 0.273438 15.8984L2.77344 13.3984C3.14062 13.0313 3.73438 13.0313 4.09766 13.3984C4.46094 13.7656 4.46484 14.3594 4.09766 14.7227L4.10156 14.7266ZM3.75 2.5H13.1992C13.0547 2.78125 12.9688 3.09766 12.9688 3.4375C12.9688 4.5586 13.8789 5.46875 15 5.46875H19.5859C19.4297 6.13281 19.6094 6.85547 20.125 7.375C20.918 8.16797 22.2031 8.16797 22.9961 7.375L23.75 6.6211V15C23.75 16.3789 22.6289 17.5 21.25 17.5H11.8008C11.9453 17.2188 12.0312 16.9023 12.0312 16.5625C12.0312 15.4414 11.1211 14.5313 10 14.5313H5.41406C5.57031 13.8672 5.39062 13.1445 4.875 12.625C4.08203 11.832 2.79688 11.832 2.00391 12.625L1.25 13.3789V5C1.25 3.6211 2.37109 2.5 3.75 2.5ZM6.25 5H3.75V7.5C5.12891 7.5 6.25 6.37891 6.25 5ZM21.25 12.5C19.8711 12.5 18.75 13.6211 18.75 15H21.25V12.5ZM12.5 13.75C13.4946 13.75 14.4484 13.3549 15.1517 12.6517C15.8549 11.9484 16.25 10.9946 16.25 10C16.25 9.00544 15.8549 8.05161 15.1517 7.34835C14.4484 6.64509 13.4946 6.25 12.5 6.25C11.5054 6.25 10.5516 6.64509 9.84835 7.34835C9.14509 8.05161 8.75 9.00544 8.75 10C8.75 10.9946 9.14509 11.9484 9.84835 12.6517C10.5516 13.3549 11.5054 13.75 12.5 13.75Z" fill="#3B82F6"/>
</g>
<defs>
<clipPath id="clip0_85_12851">
<path d="M0 0H25V20H0V0Z" fill="white"/>
</clipPath>
</defs>
</svg>
