<svg width="16" height="16" viewBox="0 0 16 16" fill="none" xmlns="http://www.w3.org/2000/svg">
<path d="M0 0H16V16H0V0Z" stroke="#E5E7EB"/>
<path d="M4.225 3.66875L3.40937 6H12.5906L11.775 3.66875C11.6344 3.26875 11.2563 3 10.8313 3H5.16875C4.74375 3 4.36562 3.26875 4.225 3.66875ZM1.2375 6.15L2.3375 3.00938C2.75938 1.80625 3.89375 1 5.16875 1H10.8313C12.1062 1 13.2406 1.80625 13.6625 3.00938L14.7625 6.15C15.4875 6.45 16 7.16563 16 8V12.5V14C16 14.5531 15.5531 15 15 15H14C13.4469 15 13 14.5531 13 14V12.5H3V14C3 14.5531 2.55312 15 2 15H1C0.446875 15 0 14.5531 0 14V12.5V8C0 7.16563 0.5125 6.45 1.2375 6.15ZM4 9C4 8.73478 3.89464 8.48043 3.70711 8.29289C3.51957 8.10536 3.26522 8 3 8C2.73478 8 2.48043 8.10536 2.29289 8.29289C2.10536 8.48043 2 8.73478 2 9C2 9.26522 2.10536 9.51957 2.29289 9.70711C2.48043 9.89464 2.73478 10 3 10C3.26522 10 3.51957 9.89464 3.70711 9.70711C3.89464 9.51957 4 9.26522 4 9ZM13 10C13.2652 10 13.5196 9.89464 13.7071 9.70711C13.8946 9.51957 14 9.26522 14 9C14 8.73478 13.8946 8.48043 13.7071 8.29289C13.5196 8.10536 13.2652 8 13 8C12.7348 8 12.4804 8.10536 12.2929 8.29289C12.1054 8.48043 12 8.73478 12 9C12 9.26522 12.1054 9.51957 12.2929 9.70711C12.4804 9.89464 12.7348 10 13 10Z" fill="#00A9E0"/>
</svg>
