<svg width="38" height="30" viewBox="0 0 38 30" fill="none" xmlns="http://www.w3.org/2000/svg">
<g clip-path="url(#clip0_81_10663)">
<path d="M13.125 15C15.1141 15 17.0218 14.2098 18.4283 12.8033C19.8348 11.3968 20.625 9.48912 20.625 7.5C20.625 5.51088 19.8348 3.60322 18.4283 2.1967C17.0218 0.790176 15.1141 0 13.125 0C11.1359 0 9.22822 0.790176 7.8217 2.1967C6.41518 3.60322 5.625 5.51088 5.625 7.5C5.625 9.48912 6.41518 11.3968 7.8217 12.8033C9.22822 14.2098 11.1359 15 13.125 15ZM10.4473 17.8125C4.67578 17.8125 0 22.4883 0 28.2598C0 29.2207 0.779297 30 1.74023 30H24.5098C24.6152 30 24.7148 29.9883 24.8203 29.9707C20.3496 26.7422 18.9727 21.709 18.7793 18.2402C17.8359 17.959 16.8398 17.8125 15.8086 17.8125H10.4473ZM28.541 13.2246L21.5098 16.0371C20.9766 16.2539 20.625 16.7695 20.625 17.3438C20.625 21.0527 22.1426 27.2344 28.5234 29.8945C28.8691 30.041 29.2617 30.041 29.6074 29.8945C35.9824 27.2344 37.5 21.0527 37.5 17.3438C37.5 16.7695 37.1484 16.2539 36.6152 16.0371L29.584 13.2246C29.25 13.0898 28.875 13.0898 28.541 13.2246ZM34.6523 18.2812C34.4238 21.252 33.0586 25.1191 29.0625 27.0527V16.043L34.6523 18.2812Z" fill="#00A9E0"/>
</g>
<defs>
<clipPath id="clip0_81_10663">
<path d="M0 0H37.5V30H0V0Z" fill="white"/>
</clipPath>
</defs>
</svg>
