<svg width="20" height="16" viewBox="0 0 20 16" fill="none" xmlns="http://www.w3.org/2000/svg">
<g clip-path="url(#clip0_52_2077)">
<path d="M12.0002 1H16.0002C16.5533 1 17.0002 1.44687 17.0002 2C17.0002 2.55312 16.5533 3 16.0002 3H12.4502C12.2877 3.80625 11.7346 4.47188 11.0002 4.79063V14H16.0002C16.5533 14 17.0002 14.4469 17.0002 15C17.0002 15.5531 16.5533 16 16.0002 16H10.0002H4.00022C3.44709 16 3.00022 15.5531 3.00022 15C3.00022 14.4469 3.44709 14 4.00022 14H9.00022V4.79063C8.26584 4.46875 7.71272 3.80312 7.55022 3H4.00022C3.44709 3 3.00022 2.55312 3.00022 2C3.00022 1.44687 3.44709 1 4.00022 1H8.00022C8.45647 0.39375 9.18147 0 10.0002 0C10.819 0 11.544 0.39375 12.0002 1ZM13.7377 10H18.2627L16.0002 6.11875L13.7377 10ZM16.0002 13C14.0346 13 12.4002 11.9375 12.0627 10.5344C11.9815 10.1906 12.094 9.8375 12.2721 9.53125L15.2471 4.43125C15.4033 4.1625 15.6908 4 16.0002 4C16.3096 4 16.5971 4.16563 16.7533 4.43125L19.7283 9.53125C19.9065 9.8375 20.019 10.1906 19.9377 10.5344C19.6002 11.9375 17.9658 13 16.0002 13ZM3.96272 6.11875L1.70022 10H6.22834L3.96272 6.11875ZM0.0283436 10.5344C-0.0529064 10.1906 0.0595936 9.8375 0.237719 9.53125L3.21272 4.43125C3.36897 4.1625 3.65647 4 3.96584 4C4.27522 4 4.56272 4.16563 4.71897 4.43125L7.69397 9.53125C7.87209 9.8375 7.98459 10.1906 7.90334 10.5344C7.56272 11.9375 5.92834 13 3.96272 13C1.99709 13 0.365844 11.9375 0.0283436 10.5344Z" fill="#FBBF24"/>
</g>
<defs>
<clipPath id="clip0_52_2077">
<path d="M0 0H20V16H0V0Z" fill="white"/>
</clipPath>
</defs>
</svg>
